<svg id="call-answer" xmlns="http://www.w3.org/2000/svg" width="23.343" height="23.29" viewBox="0 0 23.343 23.29">
  <defs>
    <style>
      .cls-1 {
        fill: #028392;
      }
    </style>
  </defs>
  <g id="Group_21" data-name="Group 21" transform="translate(0 0)">
    <g id="Group_20" data-name="Group 20" transform="translate(0 0)">
      <path id="Path_21" data-name="Path 21" class="cls-1" d="M.523,18.815l3.6-3.605a1.88,1.88,0,0,1,2.65.05l1.816,1.816.358-.2a18.073,18.073,0,0,0,4.368-3.16A18.174,18.174,0,0,0,16.487,9.34c.067-.122.132-.239.2-.35L15.463,7.773l-.6-.6a1.878,1.878,0,0,1-.048-2.65l3.6-3.606a1.878,1.878,0,0,1,2.65.05l1.016,1.022-.028.028A5.875,5.875,0,0,1,22.9,3.493a6.123,6.123,0,0,1,.372,1.5c.476,3.946-1.327,7.553-6.221,12.447C10.283,24.2,4.831,23.691,4.6,23.666a6.091,6.091,0,0,1-1.5-.377,5.855,5.855,0,0,1-1.471-.834l-.022.02L.571,21.467A1.881,1.881,0,0,1,.523,18.815Z" transform="translate(0 -0.394)"/>
    </g>
  </g>
</svg>
