<svg id="download-on-the-app-store-apple" xmlns="http://www.w3.org/2000/svg" width="314.182" height="93.092" viewBox="0 0 314.182 93.092">
  <defs>
    <style>
      .cls-1 {
        fill: #fff;
      }

      .cls-2 {
        fill: none;
      }
    </style>
  </defs>
  <path id="Path_13" data-name="Path 13" class="cls-1" d="M313.59,83.591a8.917,8.917,0,0,1-8.928,8.916H12.5a8.929,8.929,0,0,1-8.939-8.916v-71.1A8.94,8.94,0,0,1,12.5,3.561H304.66a8.926,8.926,0,0,1,8.928,8.928l0,71.1Z" transform="translate(-1.49 -1.489)"/>
  <path id="Path_14" data-name="Path 14" class="cls-2" d="M303.173,93.092H11.012A11.012,11.012,0,0,1,0,82.1V11A11.02,11.02,0,0,1,11.012,0H303.171a11.024,11.024,0,0,1,11.012,11V82.1a11.011,11.011,0,0,1-11.009,10.99Z"/>
  <path id="Path_15" data-name="Path 15" d="M313.59,83.591a8.917,8.917,0,0,1-8.928,8.916H12.5a8.929,8.929,0,0,1-8.939-8.916v-71.1A8.94,8.94,0,0,1,12.5,3.561H304.66a8.926,8.926,0,0,1,8.928,8.928l0,71.1Z" transform="translate(-1.49 -1.489)"/>
  <path id="Path_16" data-name="Path 16" class="cls-1" d="M91.563,56.458c-.068-7.5,6.145-11.153,6.429-11.323A13.827,13.827,0,0,0,87.1,39.25c-4.58-.482-9.023,2.74-11.356,2.74-2.38,0-5.973-2.693-9.845-2.614a14.5,14.5,0,0,0-12.2,7.44c-5.276,9.132-1.341,22.553,3.714,29.935,2.529,3.618,5.484,7.652,9.351,7.51,3.784-.154,5.2-2.409,9.764-2.409,4.524,0,5.852,2.409,9.8,2.319,4.061-.063,6.618-3.632,9.058-7.279a29.838,29.838,0,0,0,4.143-8.434,13.056,13.056,0,0,1-7.964-12ZM84.112,34.394a13.28,13.28,0,0,0,3.041-9.519A13.535,13.535,0,0,0,78.4,29.4c-1.877,2.193-3.553,5.787-3.12,9.167,3.309.247,6.706-1.669,8.83-4.174Z" transform="translate(-21.409 -10.402)"/>
  <g id="Group_17" data-name="Group 17" transform="translate(98.8 41.901)">
    <path id="Path_18" data-name="Path 18" class="cls-1" d="M195.973,103.455h-5.288l-2.9-9.1H177.719l-2.759,9.1h-5.148l9.978-30.98h6.161Zm-9.058-12.918-2.62-8.09q-.416-1.24-1.562-5.836h-.093q-.461,1.976-1.472,5.836l-2.575,8.09Zm34.667,1.474q0,5.7-3.1,9.007a9.081,9.081,0,0,1-6.888,2.943q-4.439,0-6.38-3.168v11.721h-4.964V88.458q0-3.579-.184-7.342h4.366l.277,3.541h.093a8.833,8.833,0,0,1,14.137-.878A12.351,12.351,0,0,1,221.582,92.01Zm-5.058.182a9.208,9.208,0,0,0-1.472-5.38,5.087,5.087,0,0,0-4.322-2.2,5.164,5.164,0,0,0-3.332,1.218,5.647,5.647,0,0,0-1.954,3.2,6.479,6.479,0,0,0-.23,1.511v3.727a5.976,5.976,0,0,0,1.495,4.116,4.963,4.963,0,0,0,3.884,1.678,5.089,5.089,0,0,0,4.366-2.16A9.506,9.506,0,0,0,216.525,92.192Zm30.758-.182q0,5.7-3.1,9.007a9.086,9.086,0,0,1-6.89,2.943q-4.439,0-6.38-3.168v11.721h-4.964V88.458q0-3.579-.184-7.342h4.366l.277,3.541h.093a8.835,8.835,0,0,1,14.139-.878,12.363,12.363,0,0,1,2.641,8.232Zm-5.06.182a9.208,9.208,0,0,0-1.474-5.38,5.079,5.079,0,0,0-4.317-2.2,5.185,5.185,0,0,0-3.337,1.218,5.643,5.643,0,0,0-1.951,3.2,6.629,6.629,0,0,0-.233,1.511v3.727a6,6,0,0,0,1.493,4.116,4.974,4.974,0,0,0,3.889,1.678,5.083,5.083,0,0,0,4.366-2.16A9.506,9.506,0,0,0,242.223,92.192Zm33.794,2.572a8.275,8.275,0,0,1-2.755,6.437q-3.025,2.71-8.441,2.712a14.737,14.737,0,0,1-8.024-1.93l1.148-4.137a13.814,13.814,0,0,0,7.172,1.932,6.768,6.768,0,0,0,4.366-1.264,4.129,4.129,0,0,0,1.567-3.376,4.326,4.326,0,0,0-1.29-3.173,11.959,11.959,0,0,0-4.275-2.388q-8.138-3.034-8.141-8.874a7.834,7.834,0,0,1,2.873-6.251,11.364,11.364,0,0,1,7.61-2.437,15.041,15.041,0,0,1,7.035,1.471l-1.246,4.046a12.3,12.3,0,0,0-5.954-1.425,6.056,6.056,0,0,0-4.108,1.287,3.684,3.684,0,0,0-1.246,2.807,3.794,3.794,0,0,0,1.427,3.033,16.081,16.081,0,0,0,4.5,2.388,15.268,15.268,0,0,1,5.884,3.767,7.849,7.849,0,0,1,1.893,5.373Zm16.456-9.924H287V95.686q0,4.138,2.9,4.134a8.723,8.723,0,0,0,2.205-.23l.137,3.769a11.25,11.25,0,0,1-3.861.549,5.951,5.951,0,0,1-4.6-1.795q-1.652-1.795-1.656-6.022V84.831h-3.26V81.106h3.26v-4.09L287,75.545v5.561h5.472V84.84ZM317.114,92.1a12.252,12.252,0,0,1-2.943,8.457,10.493,10.493,0,0,1-8.183,3.4,10,10,0,0,1-7.84-3.259,11.88,11.88,0,0,1-2.92-8.227,12.153,12.153,0,0,1,3.011-8.5,10.438,10.438,0,0,1,8.117-3.31,10.212,10.212,0,0,1,7.905,3.264A11.726,11.726,0,0,1,317.114,92.1Zm-5.146.114a10,10,0,0,0-1.33-5.27,4.914,4.914,0,0,0-4.461-2.661,4.985,4.985,0,0,0-4.552,2.661,10.166,10.166,0,0,0-1.332,5.364,9.971,9.971,0,0,0,1.332,5.273,5.092,5.092,0,0,0,8.972-.044,10.041,10.041,0,0,0,1.371-5.322Zm21.29-6.735a8.641,8.641,0,0,0-1.565-.137,4.686,4.686,0,0,0-4.047,1.979,7.451,7.451,0,0,0-1.239,4.411v11.721h-4.965v-15.3q.007-3.518-.144-7.033h4.324l.182,4.274h.137a7.663,7.663,0,0,1,2.482-3.541,6,6,0,0,1,3.588-1.2,7.973,7.973,0,0,1,1.241.091l0,4.735Zm22.2,5.748a11.64,11.64,0,0,1-.182,2.251H340.385a6.478,6.478,0,0,0,2.161,5.061,7.39,7.39,0,0,0,4.871,1.56,16.476,16.476,0,0,0,6.026-1.055l.778,3.443a18.635,18.635,0,0,1-7.491,1.38,10.861,10.861,0,0,1-8.164-3.054,11.291,11.291,0,0,1-2.964-8.2,12.794,12.794,0,0,1,2.762-8.409,9.515,9.515,0,0,1,7.812-3.583A8.328,8.328,0,0,1,353.49,84.2,12.054,12.054,0,0,1,355.46,91.228Zm-4.734-1.287a6.718,6.718,0,0,0-.964-3.815,4.335,4.335,0,0,0-3.954-2.072,4.707,4.707,0,0,0-3.952,2.023,7.413,7.413,0,0,0-1.469,3.86l10.339,0Z" transform="translate(-169.812 -72.016)"/>
  </g>
  <g id="Group_18" data-name="Group 18" transform="translate(101.707 15.255)">
    <path id="Path_19" data-name="Path 19" class="cls-1" d="M178.376,42.37a31.708,31.708,0,0,1-3.57-.182V27.211a27.032,27.032,0,0,1,4.2-.317c5.693,0,8.315,2.8,8.315,7.366C187.325,39.526,184.228,42.37,178.376,42.37Zm.834-13.556a9.962,9.962,0,0,0-1.965.158V40.359a12.888,12.888,0,0,0,1.649.068c3.73,0,5.854-2.123,5.854-6.1C184.747,30.782,182.826,28.815,179.21,28.815ZM195.5,42.484c-3.209,0-5.288-2.4-5.288-5.648,0-3.389,2.124-5.806,5.47-5.806,3.162,0,5.288,2.281,5.288,5.627C200.965,40.089,198.774,42.484,195.5,42.484Zm.093-9.67c-1.763,0-2.892,1.648-2.892,3.953,0,2.26,1.153,3.909,2.869,3.909s2.869-1.762,2.869-3.955C198.434,34.486,197.3,32.814,195.589,32.814Zm23.674-1.557-3.435,10.979h-2.238l-1.423-4.768a36.136,36.136,0,0,1-.883-3.545h-.047a23.764,23.764,0,0,1-.88,3.545l-1.514,4.768h-2.261l-3.232-10.979h2.508l1.243,5.219q.44,1.865.745,3.524h.047c.179-.924.473-2.079.9-3.5l1.56-5.24h1.989l1.493,5.128c.361,1.243.654,2.463.883,3.615h.065a31.6,31.6,0,0,1,.745-3.615l1.334-5.128,2.4,0Zm12.644,10.979h-2.44v-6.3c0-1.941-.745-2.915-2.214-2.915a2.534,2.534,0,0,0-2.44,2.689v6.53h-2.44v-7.84c0-.971-.023-2.011-.091-3.14h2.147l.114,1.695h.068a3.945,3.945,0,0,1,3.481-1.918c2.305,0,3.819,1.762,3.819,4.63l0,6.574Zm6.73,0h-2.443V26.219h2.443Zm8.9.249c-3.206,0-5.288-2.4-5.288-5.648,0-3.389,2.124-5.806,5.467-5.806,3.165,0,5.288,2.281,5.288,5.627C253,40.089,250.81,42.484,247.534,42.484Zm.091-9.67c-1.763,0-2.892,1.648-2.892,3.953,0,2.26,1.155,3.909,2.866,3.909s2.869-1.762,2.869-3.955c0-2.235-1.125-3.906-2.843-3.906Zm15,9.421-.177-1.264h-.065a3.749,3.749,0,0,1-3.211,1.513,3.193,3.193,0,0,1-3.365-3.231c0-2.71,2.35-4.111,6.417-4.111v-.2c0-1.446-.766-2.17-2.28-2.17a5.14,5.14,0,0,0-2.869.815l-.5-1.6a7.02,7.02,0,0,1,3.77-.95c2.869,0,4.317,1.513,4.317,4.542v4.044a16.579,16.579,0,0,0,.158,2.621l-2.2,0Zm-.335-5.468c-2.71,0-4.07.656-4.07,2.214a1.556,1.556,0,0,0,1.674,1.716,2.337,2.337,0,0,0,2.4-2.235Zm14.227,5.468-.114-1.762h-.068a3.681,3.681,0,0,1-3.525,2.011c-2.648,0-4.608-2.328-4.608-5.6,0-3.434,2.033-5.852,4.808-5.852a3.3,3.3,0,0,1,3.1,1.492h.049v-6.3H278.6V39.277c0,1.062.026,2.056.091,2.959h-2.173Zm-.361-6.46a2.656,2.656,0,0,0-2.571-2.847c-1.809,0-2.915,1.6-2.915,3.862,0,2.214,1.148,3.729,2.866,3.729a2.74,2.74,0,0,0,2.62-2.915Zm17.93,6.709c-3.206,0-5.286-2.4-5.286-5.648,0-3.389,2.124-5.806,5.467-5.806,3.165,0,5.288,2.281,5.288,5.627,0,3.431-2.189,5.827-5.47,5.827Zm.091-9.67c-1.76,0-2.89,1.648-2.89,3.953,0,2.26,1.153,3.909,2.866,3.909s2.869-1.762,2.869-3.955c0-2.235-1.125-3.906-2.845-3.906Zm18.5,9.421h-2.443v-6.3c0-1.941-.745-2.915-2.214-2.915a2.532,2.532,0,0,0-2.438,2.689v6.53H303.14v-7.84c0-.971-.023-2.011-.091-3.14H305.2l.114,1.695h.068a3.943,3.943,0,0,1,3.479-1.921c2.305,0,3.821,1.762,3.821,4.63ZM329.1,33.087h-2.685v5.331c0,1.357.47,2.035,1.42,2.035a4.808,4.808,0,0,0,1.083-.114l.068,1.853a5.407,5.407,0,0,1-1.893.272c-1.923,0-3.074-1.062-3.074-3.841V33.087h-1.6v-1.83h1.6V29.246l2.4-.724v2.733H329.1v1.832Zm12.919,9.149h-2.438V35.978c0-1.965-.743-2.959-2.214-2.959a2.393,2.393,0,0,0-2.443,2.6v6.618h-2.438V26.219h2.438v6.6h.049a3.7,3.7,0,0,1,3.3-1.786c2.324,0,3.744,1.806,3.744,4.677v6.53Zm13.236-4.9h-7.323a3.151,3.151,0,0,0,3.46,3.252,8.249,8.249,0,0,0,2.96-.519l.38,1.695a9.169,9.169,0,0,1-3.684.677c-3.435,0-5.467-2.17-5.467-5.534s2.082-5.9,5.193-5.9c2.806,0,4.566,2.079,4.566,5.219a4.7,4.7,0,0,1-.084,1.106Zm-2.238-1.739c0-1.695-.855-2.891-2.415-2.891a2.894,2.894,0,0,0-2.669,2.891Z" transform="translate(-174.806 -26.219)"/>
  </g>
</svg>
