<svg xmlns="http://www.w3.org/2000/svg" xmlns:xlink="http://www.w3.org/1999/xlink" width="283.764" height="92.822" viewBox="0 0 283.764 92.822">
  <defs>
    <style>
      .cls-1 {
        clip-path: url(#clip-path);
      }

      .cls-2 {
        fill: url(#linear-gradient);
      }

      .cls-3 {
        fill: url(#linear-gradient-2);
      }

      .cls-4 {
        fill: url(#linear-gradient-3);
      }

      .cls-5 {
        fill: url(#linear-gradient-4);
      }

      .cls-6 {
        fill: #f9f9f9;
      }

      .cls-7 {
        fill: #f9f9fa;
      }
    </style>
    <clipPath id="clip-path">
      <path id="Path_3" data-name="Path 3" d="M503.439,430.5l-12.8-7.387-24.68-14.251c-1.37-.791-2.736-.312-2.736,1.341v58.059c0,1.239.976,1.774,2.166,1.087l25.25-14.579,12.795-7.387,12.3-7.1c1.443-.834,1.3-1.977.087-2.632s-12.385-7.151-12.385-7.151Z" transform="translate(-463.228 -408.486)"/>
    </clipPath>
    <linearGradient id="linear-gradient" x1="1.441" y1="1.519" x2="1.441" y2="1.436" gradientUnits="objectBoundingBox">
      <stop offset="0" stop-color="#257cb0"/>
      <stop offset="0.286" stop-color="#4a93b5"/>
      <stop offset="0.767" stop-color="#78bcbb"/>
      <stop offset="1" stop-color="#89cfbd"/>
    </linearGradient>
    <linearGradient id="linear-gradient-2" x1="1.103" y1="2.982" x2="1.187" y2="2.982" gradientUnits="objectBoundingBox">
      <stop offset="0" stop-color="#52c1ad"/>
      <stop offset="1" stop-color="#dee89a"/>
    </linearGradient>
    <linearGradient id="linear-gradient-3" x1="1.145" y1="1.94" x2="1.145" y2="1.857" gradientUnits="objectBoundingBox">
      <stop offset="0" stop-color="#ec413d"/>
      <stop offset="0.167" stop-color="#da4452"/>
      <stop offset="0.575" stop-color="#b0487a"/>
      <stop offset="0.862" stop-color="#954a92"/>
      <stop offset="1" stop-color="#8a4a9d"/>
    </linearGradient>
    <linearGradient id="linear-gradient-4" x1="0.704" y1="4.18" x2="0.704" y2="4.097" gradientUnits="objectBoundingBox">
      <stop offset="0" stop-color="#f58879"/>
      <stop offset="0.119" stop-color="#f69079"/>
      <stop offset="0.713" stop-color="#fcb877"/>
      <stop offset="1" stop-color="#fec874"/>
    </linearGradient>
  </defs>
  <g id="google-play-download-android-app" transform="translate(-2.86 -0.814)">
    <path id="Path_1" data-name="Path 1" d="M286.624,81.091a12.544,12.544,0,0,1-12.541,12.545H15.4A12.545,12.545,0,0,1,2.86,81.091V13.358A12.545,12.545,0,0,1,15.4.814H274.082a12.543,12.543,0,0,1,12.541,12.544V81.092h0Z"/>
    <g id="Group_13" data-name="Group 13" class="cls-1" transform="translate(24.144 19.662)">
      <path id="Path_2" data-name="Path 2" class="cls-2" d="M463.24,387.346v62.859l31.7-31.429Z" transform="translate(-463.239 -388.323)"/>
    </g>
    <g id="Group_14" data-name="Group 14" class="cls-1" transform="translate(24.144 19.662)">
      <path id="Path_4" data-name="Path 4" class="cls-3" d="M503.451,405.618l-12.8-7.387L463.24,382.4v.229l31.7,31.43Z" transform="translate(-463.239 -383.608)"/>
    </g>
    <g id="Group_15" data-name="Group 15" class="cls-1" transform="translate(24.144 19.662)">
      <path id="Path_6" data-name="Path 6" class="cls-4" d="M463.24,1098.6v.229L490.655,1083l12.795-7.387-8.513-8.441Z" transform="translate(-463.239 -1036.715)"/>
    </g>
    <g id="Group_16" data-name="Group 16" class="cls-1" transform="translate(24.144 19.662)">
      <path id="Path_8" data-name="Path 8" class="cls-5" d="M1157.363,884.566l-8.513,8.442,8.513,8.441,14.623-8.442Z" transform="translate(-1117.152 -862.556)"/>
    </g>
    <path id="Path_10" data-name="Path 10" class="cls-6" d="M2000.159,766.114a7.912,7.912,0,0,1-3.26-.659,6.147,6.147,0,0,1-2.478-2.026h-.2a24.588,24.588,0,0,1,.2,3.035v7.522h-2.767V747.5h2.251l.383,2.5h.133a6.434,6.434,0,0,1,2.486-2.168,7.55,7.55,0,0,1,3.252-.667,6.756,6.756,0,0,1,5.613,2.485,13.238,13.238,0,0,1-.032,13.97,6.768,6.768,0,0,1-5.58,2.493Zm-.4-16.6a4.907,4.907,0,0,0-4.053,1.551,7.987,7.987,0,0,0-1.285,4.938v.616q0,3.854,1.285,5.514a4.884,4.884,0,0,0,4.119,1.659,4.285,4.285,0,0,0,3.713-1.917,9.1,9.1,0,0,0,1.342-5.288,8.76,8.76,0,0,0-1.342-5.246A4.416,4.416,0,0,0,1999.759,749.518Zm14.4,16.262h-2.769V739.827h2.769Zm15.918,0-.551-2.6h-.133a7.67,7.67,0,0,1-2.727,2.327,8.3,8.3,0,0,1-3.394.609,6.109,6.109,0,0,1-4.262-1.4,5.106,5.106,0,0,1-1.543-3.986q0-5.537,8.857-5.8l3.1-.1v-1.134a4.631,4.631,0,0,0-.927-3.177,3.8,3.8,0,0,0-2.96-1.026,12.063,12.063,0,0,0-5.171,1.4l-.851-2.118a13.018,13.018,0,0,1,2.961-1.151,12.82,12.82,0,0,1,3.227-.417,6.965,6.965,0,0,1,4.846,1.451q1.575,1.451,1.576,4.654V765.78h-2.052Zm-6.255-1.951a5.623,5.623,0,0,0,4.061-1.417,5.249,5.249,0,0,0,1.476-3.971V756.79l-2.77.116a10.072,10.072,0,0,0-4.762,1.027,3.093,3.093,0,0,0-1.459,2.827,2.846,2.846,0,0,0,.909,2.284A3.771,3.771,0,0,0,2023.823,763.83Zm9.914-16.33h2.968l4,10.425a39.842,39.842,0,0,1,1.635,5.155h.133q.217-.852.909-2.912t4.528-12.667h2.97l-7.857,20.816a10.385,10.385,0,0,1-2.728,4.38,5.8,5.8,0,0,1-3.827,1.291,11.179,11.179,0,0,1-2.5-.283v-2.218a9.672,9.672,0,0,0,2.052.2q2.853,0,4.07-3.2l1.017-2.6Zm-84.867,1.7a6.446,6.446,0,0,1,2.714,5.163c0,2.828-1.606,4.169-3.212,5.429a2.691,2.691,0,0,0-1.071,1.876,2.1,2.1,0,0,0,1,1.643l1.377,1.068c1.682,1.415,3.21,2.716,3.21,5.355,0,3.594-3.48,7.225-10.055,7.225-5.545,0-8.22-2.637-8.22-5.469a5.5,5.5,0,0,1,2.944-4.665c2.369-1.453,5.583-1.642,7.3-1.76a4,4,0,0,1-1.147-2.6,3.454,3.454,0,0,1,.382-1.493c-.422.039-.842.077-1.225.077a6.045,6.045,0,0,1-6.346-6,6.877,6.877,0,0,1,2.446-5.123,10.427,10.427,0,0,1,6.847-2.1h7.875l-2.447,1.376h-2.37Zm-2.716,16.978a5.94,5.94,0,0,0-.878-.04,15.3,15.3,0,0,0-4.016.615c-.841.3-3.289,1.221-3.289,3.937s2.64,4.666,6.731,4.666c3.668,0,5.62-1.763,5.62-4.131C1950.323,769.27,1949.061,768.242,1946.154,766.176Zm1.109-7.266a3.867,3.867,0,0,0,.954-2.792c0-2.752-1.643-7.035-4.816-7.035a3.571,3.571,0,0,0-2.677,1.262,4.417,4.417,0,0,0-.842,2.829c0,2.562,1.491,6.806,4.781,6.806A3.914,3.914,0,0,0,1947.263,758.91Zm-22.466,6.654a9.008,9.008,0,0,1-9.314-9.01c0-5,4.084-9.275,9.888-9.275a8.924,8.924,0,0,1,9.121,9.009A9.327,9.327,0,0,1,1924.8,765.564Zm4.771-3.092a6.907,6.907,0,0,0,1.147-4.239c0-3.36-1.6-9.773-6.337-9.773a5.314,5.314,0,0,0-3.435,1.3,5.775,5.775,0,0,0-1.758,4.658c0,3.776,1.871,10,6.491,10A4.878,4.878,0,0,0,1929.569,762.472Zm-25.462,3.092a9.009,9.009,0,0,1-9.315-9.01c0-5,4.085-9.275,9.889-9.275a8.924,8.924,0,0,1,9.122,9.009A9.327,9.327,0,0,1,1904.107,765.564Zm4.772-3.092a6.916,6.916,0,0,0,1.146-4.239c0-3.36-1.6-9.773-6.339-9.773a5.314,5.314,0,0,0-3.435,1.3,5.773,5.773,0,0,0-1.756,4.658c0,3.776,1.87,10,6.49,10A4.881,4.881,0,0,0,1908.879,762.472Zm-17,2.494-5.489,1.267a40.676,40.676,0,0,1-6.332.651c-10.594,0-14.623-7.792-14.623-13.894,0-7.445,5.718-14.351,15.506-14.351a22.116,22.116,0,0,1,5.871.806,14.976,14.976,0,0,1,5.066,2.38l-3.187,3.032-1.343.306.959-1.536a10.971,10.971,0,0,0-8.213-3.606c-6.064,0-10.632,4.608-10.632,11.323,0,7.213,5.22,14.007,13.586,14.007a11.429,11.429,0,0,0,4.875-.96v-6.178l-5.794.307,3.069-1.652h8.137l-1,.959a.9.9,0,0,0-.384.613c-.04.346-.076,1.46-.076,1.844v4.684h0Z" transform="translate(-1776.461 -703.713)"/>
    <path id="Path_11" data-name="Path 11" class="cls-6" d="M3764.373,746.231c-1.267-.115-1.532-.345-1.532-1.843V722.666c.008-.083.013-.168.02-.247.155-1.343.538-1.573,1.729-2.265h-5.49l-2.879,1.382h2.934v.017l0-.014v23.695c0,.766-.151.883-1.035,2.033h6.794l1.42-.842c-.652-.079-1.305-.116-1.959-.193Zm15.617.353c-.418.229-.837.5-1.255.686a8.883,8.883,0,0,1-3.7.725,8.145,8.145,0,0,1-5.07-1.487,9.866,9.866,0,0,1-3.885-8.043,8.638,8.638,0,0,1,8.728-8.8,7.406,7.406,0,0,1,3.928,1.068,6.309,6.309,0,0,1,2.665,3.771l-8.955,3.622-2.935.229c.951,4.841,4.229,7.659,7.851,7.659a9.848,9.848,0,0,0,4.65-1.331Zm-3.582-11.36c.723-.266,1.1-.5,1.1-1.029a3.782,3.782,0,0,0-3.774-3.278c-1.526,0-4.383,1.182-4.383,5.3,0,.648.077,1.334.116,2.022Zm7.26-5.3v2.515h-.306v-2.515h-.832v-.261h1.969v.261Zm3.429,2.515V729.9h-.014l-.775,2.538h-.239l-.781-2.538h-.01v2.538H3785v-2.776h.476l.707,2.244h.01l.7-2.244h.482v2.776Z" transform="translate(-3579.833 -686.083)"/>
    <path id="Path_12" data-name="Path 12" class="cls-7" d="M1874.4,413.235H1872.5a12.6,12.6,0,0,0-.543-2.229H1869.2a11.525,11.525,0,0,0-.56,2.229h-1.794q0-.232,1.391-3.814a29.936,29.936,0,0,0,1.392-3.945h2.253a32.824,32.824,0,0,0,1.26,3.888A34.153,34.153,0,0,1,1874.4,413.235Zm-2.753-3.368a33.526,33.526,0,0,1-1.019-3.325h-.1q0,.232-1.055,3.325Zm10.438,3.368h-1.472a14.542,14.542,0,0,0-1.639-2.58,14.213,14.213,0,0,1-1.954-3.367h-.1a20.977,20.977,0,0,1,.149,2.36q0,1.472.083,3.588h-1.466q.089-1.847.089-4.058,0-2.175-.089-3.7h1.77a11.2,11.2,0,0,0,1.472,2.521,14.83,14.83,0,0,1,1.8,3.177h.089a22.48,22.48,0,0,1-.143-2.384q0-1.614-.083-3.314h1.49q-.084,1.478-.083,3.7Q1882,411.417,1882.088,413.235Zm8.638-4.148a4.4,4.4,0,0,1-1.085,2.956,3.79,3.79,0,0,1-3.04,1.263q-.882,0-2.432-.072.077-1.8.078-4.058,0-2.169-.078-3.7h1.043q.256,0,.763-.018t.661-.018a4.018,4.018,0,0,1,3.12,1.073A3.708,3.708,0,0,1,1890.726,409.087Zm-1.627.256a2.874,2.874,0,0,0-.667-1.928,2.532,2.532,0,0,0-2.038-.783,6.208,6.208,0,0,0-.7.054q.059,1.192.059,2.491,0,1.425.059,2.825a3.944,3.944,0,0,0,.774.078,2.251,2.251,0,0,0,1.9-.8A3.071,3.071,0,0,0,1889.1,409.343Zm9.592,3.892h-1.764a11.706,11.706,0,0,0-1.061-2.6,1.389,1.389,0,0,0-1.192-.495q-.346,0-.661.006,0,1.532.054,3.093h-1.657q.077-1.8.078-4.058,0-2.169-.078-3.7h1.031q.179,0,.748-.018t1.052-.018q2.735,0,2.736,1.871a2.1,2.1,0,0,1-1.561,2.068v.089a1.861,1.861,0,0,1,1.055.938A20.787,20.787,0,0,1,1898.691,413.235Zm-2.235-5.483q0-1.186-1.526-1.186a5.234,5.234,0,0,0-.989.083q.066.924.065,2.408c.219.008.4.012.554.012Q1896.456,409.069,1896.456,407.752Zm10.777,1.46a4.278,4.278,0,0,1-1.121,3.034,3.636,3.636,0,0,1-2.771,1.2,3.5,3.5,0,0,1-2.634-1.106,3.892,3.892,0,0,1-1.061-2.809,4.279,4.279,0,0,1,1.121-3.034,3.635,3.635,0,0,1,2.771-1.2,3.507,3.507,0,0,1,2.634,1.1A3.889,3.889,0,0,1,1907.233,409.212Zm-1.644.173a3.078,3.078,0,0,0-.637-2.021,1.963,1.963,0,0,0-1.573-.774,1.817,1.817,0,0,0-1.478.781,3.116,3.116,0,0,0-.609,1.973,3.071,3.071,0,0,0,.641,2.017,1.962,1.962,0,0,0,1.571.778,1.816,1.816,0,0,0,1.478-.784,3.119,3.119,0,0,0,.608-1.97Zm5.014,3.85h-1.687q.077-1.847.078-4.058,0-2.175-.078-3.7h1.687q-.077,1.5-.078,3.7Q1910.526,411.423,1910.6,413.235Zm8.638-4.148a4.4,4.4,0,0,1-1.085,2.956,3.789,3.789,0,0,1-3.04,1.263q-.882,0-2.432-.072.077-1.8.078-4.058,0-2.169-.078-3.7h1.043q.256,0,.763-.018t.661-.018a4.018,4.018,0,0,1,3.12,1.073A3.708,3.708,0,0,1,1919.241,409.087Zm-1.627.256a2.873,2.873,0,0,0-.667-1.928,2.531,2.531,0,0,0-2.038-.783,6.208,6.208,0,0,0-.7.054q.059,1.192.059,2.491,0,1.425.059,2.825a3.946,3.946,0,0,0,.774.078,2.251,2.251,0,0,0,1.9-.8A3.07,3.07,0,0,0,1917.615,409.343Zm13.086,3.892h-1.907a12.57,12.57,0,0,0-.543-2.229H1925.5a11.525,11.525,0,0,0-.56,2.229h-1.793q0-.232,1.391-3.814a29.932,29.932,0,0,0,1.391-3.945h2.253a32.961,32.961,0,0,0,1.26,3.888,34.273,34.273,0,0,1,1.261,3.871Zm-2.753-3.368a33.6,33.6,0,0,1-1.02-3.325h-.1q0,.232-1.054,3.325Zm9.7-2.36a2.323,2.323,0,0,1-1.058,2.1,4.706,4.706,0,0,1-2.6.68c-.187,0-.32,0-.4-.012q0,1.121.065,2.956h-1.675q.077-1.722.078-4.058,0-2.145-.078-3.7h1.037q.221,0,.846-.018t1.085-.018a3.411,3.411,0,0,1,1.913.513A1.733,1.733,0,0,1,1937.653,407.507Zm-1.537.328q0-1.275-1.693-1.275a4.808,4.808,0,0,0-.894.089q.066,1.127.066,2.551c.1.008.215.012.346.012Q1936.115,409.212,1936.115,407.835Zm8.685-.328a2.324,2.324,0,0,1-1.057,2.1,4.708,4.708,0,0,1-2.6.68c-.187,0-.319,0-.4-.012q0,1.121.066,2.956h-1.675q.077-1.722.078-4.058,0-2.145-.078-3.7h1.037q.22,0,.846-.018t1.085-.018a3.411,3.411,0,0,1,1.913.513A1.733,1.733,0,0,1,1944.8,407.507Zm-1.537.328q0-1.275-1.693-1.275a4.808,4.808,0,0,0-.894.089q.066,1.127.066,2.551c.1.008.215.012.345.012Q1943.263,409.212,1943.263,407.835Zm13.224,1.377a4.279,4.279,0,0,1-1.121,3.034,3.634,3.634,0,0,1-2.771,1.2,3.5,3.5,0,0,1-2.634-1.106,3.9,3.9,0,0,1-1.061-2.809,4.279,4.279,0,0,1,1.12-3.034,3.635,3.635,0,0,1,2.771-1.2,3.506,3.506,0,0,1,2.634,1.1A3.892,3.892,0,0,1,1956.487,409.212Zm-1.645.173a3.078,3.078,0,0,0-.637-2.021,1.963,1.963,0,0,0-1.573-.774,1.817,1.817,0,0,0-1.478.781,3.116,3.116,0,0,0-.608,1.973,3.07,3.07,0,0,0,.641,2.017,1.962,1.962,0,0,0,1.57.778,1.815,1.815,0,0,0,1.478-.784,3.115,3.115,0,0,0,.608-1.97Zm9.723,3.85h-1.472a14.51,14.51,0,0,0-1.639-2.58,14.215,14.215,0,0,1-1.955-3.367h-.1a20.977,20.977,0,0,1,.149,2.36q0,1.472.083,3.588h-1.466q.089-1.847.089-4.058,0-2.175-.089-3.7h1.77a11.227,11.227,0,0,0,1.472,2.521,14.807,14.807,0,0,1,1.8,3.177h.089a22.477,22.477,0,0,1-.143-2.384q0-1.614-.083-3.314h1.49q-.084,1.478-.083,3.7Q1964.482,411.417,1964.565,413.235Z" transform="translate(-1777.809 -385.783)"/>
  </g>
</svg>
