<svg xmlns="http://www.w3.org/2000/svg" width="26.38" height="24.416" viewBox="0 0 26.38 24.416">
  <defs>
    <style>
      .cls-1 {
        fill: #028392;
      }
    </style>
  </defs>
  <path id="sent-mail" class="cls-1" d="M26.246,12.556a.4.4,0,0,0-.426-.061L.228,24.385A.394.394,0,0,0,.22,25.1l7.242,3.554a.394.394,0,0,0,.41-.038l7.042-5.263L9.386,29.036a.394.394,0,0,0-.11.305l.55,7.168a.394.394,0,0,0,.692.227l3.844-4.454,4.752,2.271a.394.394,0,0,0,.546-.238l6.7-21.345A.394.394,0,0,0,26.246,12.556Z" transform="translate(0 -12.458)"/>
</svg>
