<svg xmlns="http://www.w3.org/2000/svg" width="29.875" height="29.875" viewBox="0 0 29.875 29.875">
  <defs>
    <style>
      .cls-1 {
        fill: #028392;
      }
    </style>
  </defs>
  <g id="clock" transform="translate(-0.001)">
    <g id="Group_22" data-name="Group 22" transform="translate(0.001)">
      <path id="Path_23" data-name="Path 23" class="cls-1" d="M14.938,0A14.938,14.938,0,1,0,29.876,14.937,14.937,14.937,0,0,0,14.938,0ZM15.97,16.764a1.007,1.007,0,0,1-.012.118c0,.029-.006.06-.012.089s-.018.06-.028.09a1.056,1.056,0,0,1-.038.107c0,.006,0,.012-.006.018a1.024,1.024,0,0,1-.077.136l-.006.008a1.028,1.028,0,0,1-.109.132l-.033.032a.989.989,0,0,1-.109.09l-.036.026a1.034,1.034,0,0,1-.155.084l-.036.013a1.038,1.038,0,0,1-.139.043l-.051.011a1.029,1.029,0,0,1-.185.019c-.013,0-.026,0-.038,0a1.039,1.039,0,0,1-.176-.019c-.018,0-.035-.012-.053-.017a1.049,1.049,0,0,1-.155-.053L14.5,17.68l-5.728-2.7a1.033,1.033,0,1,1,.881-1.869l4.254,2.006V6.2a1.033,1.033,0,1,1,2.066,0V16.745h0C15.972,16.751,15.97,16.758,15.97,16.764Z" transform="translate(-0.001)"/>
    </g>
  </g>
</svg>
