<svg xmlns="http://www.w3.org/2000/svg" width="33.445" height="39.014" viewBox="0 0 33.445 39.014">
  <defs>
    <style>
      .cls-1 {
        fill: #fff;
      }
    </style>
  </defs>
  <path id="XMLID_3_" class="cls-1" d="M67.33,29.318l-1.243-6.58a.848.848,0,0,0-1.271-.569l-5.734,3.457a.848.848,0,0,0,.5,1.572l2.24-.156c-2.139,2.874-5.358,4.054-9.05,4.356V12.575h1.844a1.788,1.788,0,1,0,0-2.862H52.768V7.129a3.889,3.889,0,1,0-4.291,0V9.714H46.633a1.788,1.788,0,1,0,0,2.862h1.844V31.4c-3.692-.3-6.911-1.482-9.05-4.356l2.24.156a.848.848,0,0,0,.5-1.572L36.429,22.17a.848.848,0,0,0-1.271.569l-1.244,6.58a.848.848,0,0,0,1.5.677l1.338-1.726c2.615,4.235,6.728,7.781,11.472,8.7l1.8,1.8a.848.848,0,0,0,1.2,0l1.8-1.8c4.743-.92,8.857-4.466,11.472-8.7l1.338,1.726a.848.848,0,0,0,1.5-.677ZM50.622,2.862a1.028,1.028,0,1,1-1.028,1.028A1.029,1.029,0,0,1,50.622,2.862Z" transform="translate(-33.899)"/>
</svg>
